<?xml version="1.0" standalone="no"?>
<!DOCTYPE svg PUBLIC "-//W3C//DTD SVG 20010904//EN"
 "http://www.w3.org/TR/2001/REC-SVG-20010904/DTD/svg10.dtd">
<svg version="1.0" xmlns="http://www.w3.org/2000/svg"
 width="1280.000000pt" height="1280.000000pt" viewBox="0 0 1280.000000 1280.000000"
 preserveAspectRatio="xMidYMid meet">
<metadata>
Created by potrace 1.16, written by Peter Selinger 2001-2019
</metadata>
<g transform="translate(0.000000,1280.000000) scale(0.100000,-0.100000)"
fill="#000000" stroke="none">
<path d="M6370 12146 c-170 -31 -299 -74 -450 -152 -337 -175 -617 -471 -800
-849 -106 -219 -165 -405 -207 -660 -26 -156 -26 -554 0 -710 80 -487 276
-887 586 -1195 214 -213 435 -346 705 -424 161 -47 157 -47 210 20 68 87 90
150 89 259 0 101 -15 152 -66 227 -28 42 -40 51 -97 69 -162 53 -281 129 -421
268 -189 187 -307 400 -380 679 -147 567 -8 1181 353 1559 212 221 451 333
713 333 189 0 355 -51 525 -161 85 -56 262 -234 328 -331 97 -142 196 -369
232 -531 13 -55 15 -57 54 -68 165 -42 383 -122 515 -189 33 -16 63 -30 65
-30 3 0 3 24 0 53 -47 474 -185 848 -436 1180 -86 114 -275 299 -388 380 -167
119 -387 216 -590 262 -102 23 -435 29 -540 11z"/>
<path d="M7245 10052 c177 -118 313 -232 465 -389 438 -450 703 -1010 776
-1638 20 -173 15 -556 -10 -708 -81 -506 -269 -940 -574 -1333 -88 -114 -267
-300 -377 -394 l-84 -72 23 -36 c13 -20 563 -971 1221 -2112 1465 -2538 1374
-2383 1432 -2453 101 -120 257 -217 417 -257 95 -24 268 -27 367 -6 314 67
559 325 615 647 28 160 2 343 -67 480 -25 51 -2520 4381 -2590 4495 l-19 31
47 59 c212 272 379 630 447 964 35 173 46 291 46 484 0 860 -467 1639 -1230
2049 -270 146 -625 248 -915 264 l-110 6 120 -81z m1599 -4842 c88 -28 171
-103 212 -192 39 -86 40 -187 2 -270 -73 -160 -239 -244 -399 -204 -162 41
-264 174 -264 341 1 98 31 171 98 239 98 98 217 127 351 86z m788 -1358 c26
-13 64 -40 85 -61 55 -56 507 -841 529 -919 43 -155 -56 -324 -218 -373 -74
-23 -113 -21 -201 7 -94 31 -127 75 -366 490 -292 508 -275 472 -275 569 0 65
4 89 24 130 34 70 105 138 171 164 73 29 184 26 251 -7z m1183 -2053 c149 -70
221 -243 164 -394 -30 -82 -113 -165 -188 -190 -210 -69 -421 78 -421 294 0
74 14 119 53 177 89 132 253 179 392 113z"/>
<path d="M5917 10003 c18 -259 123 -505 293 -687 53 -56 67 -65 124 -80 230
-63 426 -232 531 -459 47 -101 65 -176 72 -293 27 -473 -348 -873 -822 -876
-325 -2 -605 173 -755 472 -24 48 -66 99 -159 196 -283 291 -486 623 -606 989
-43 131 -88 315 -101 413 -4 28 -11 52 -16 52 -5 0 -55 -31 -111 -69 -546
-372 -891 -920 -1004 -1596 -28 -171 -25 -555 5 -728 63 -350 183 -653 368
-927 46 -69 93 -137 105 -151 l21 -26 -1273 -2204 c-700 -1212 -1282 -2226
-1293 -2254 -15 -37 -20 -73 -20 -140 1 -87 5 -104 118 -464 64 -205 123 -386
131 -401 19 -37 87 -96 131 -115 69 -29 141 -19 534 70 409 93 452 108 528
184 43 44 222 334 222 360 0 6 -74 178 -165 383 -91 204 -164 372 -163 373 2
2 185 22 408 45 223 23 407 44 409 46 3 3 -41 154 -97 337 -57 182 -103 337
-102 342 0 6 147 43 328 84 180 41 336 77 348 82 14 5 64 82 142 217 l121 211
-55 401 c-31 221 -54 402 -53 404 2 1 168 69 369 150 201 82 370 152 376 157
6 5 125 207 265 450 l254 441 38 -6 c105 -17 316 -27 427 -21 499 26 928 179
1318 468 124 93 361 326 449 442 262 347 416 723 474 1155 16 122 16 448 0
570 -83 615 -367 1135 -836 1528 -313 263 -747 458 -1140 511 -44 6 -94 14
-111 16 l-31 5 4 -57z"/>
</g>
</svg>
