<svg id="Calque_1" data-name="Calque 1" xmlns="http://www.w3.org/2000/svg" viewBox="0 0 324.56 181.04"><defs><style>.cls-1{font-size:40px;font-family:Helvetica-Light, Helvetica;font-weight:300;}</style></defs><text class="cls-1" transform="translate(0 166.84)">Cabinet d’avocats</text><path d="M546.37,337.28q0,1.2-.6,1.2h-22.4q-7,0-8.4-.8t-7.3-9.2q-5.9-8.4-14.3-19l-31.8-39.4-7,6.8v45.4q0,6.2,1.3,9a7.13,7.13,0,0,0,4.9,3.8q3.6,1,11.6,1c.27,0,.4.4.4,1.2s-.13,1.2-.4,1.2q-6,0-9.6-.2l-13.6-.2-13.2.2q-3.6.2-10,.2c-.27,0-.4-.4-.4-1.2s.13-1.2.4-1.2a47.85,47.85,0,0,0,11.5-1,7.44,7.44,0,0,0,5.1-3.9q1.4-2.9,1.4-8.9v-92.6q0-6-1.3-8.8a7.44,7.44,0,0,0-5-3.9q-3.71-1.09-11.5-1.1c-.27,0-.4-.4-.4-1.2s.13-1.2.4-1.2l9.8.2q8.4.4,13.2.4,5.4,0,13.8-.4l9.4-.2c.27,0,.4.4.4,1.2s-.13,1.2-.4,1.2q-7.8,0-11.5,1.2a7.71,7.71,0,0,0-5,4.1q-1.31,2.9-1.3,8.9v42.2l44-43.8q6.8-6.79,6.8-9.4c0-1.2-.9-2-2.7-2.5a39.42,39.42,0,0,0-8.9-.7c-.27,0-.4-.4-.4-1.2s.13-1.2.4-1.2l8.4.2q7.6.4,14.2.4,6.2,0,13-.4l7-.2q.6,0,.6,1.2t-.6,1.2a50.11,50.11,0,0,0-16.9,3.1,44,44,0,0,0-16.3,10.7l-34,33.2,28.6,36q15.19,19,23.2,26.8t12.2,9.1q4.2,1.31,12.6,1.3Q546.37,336.08,546.37,337.28Z" transform="translate(-422.73 -212.88)"/><path d="M546.57,278.28a31.19,31.19,0,0,0-9.6,23.2,37.91,37.91,0,0,0,5,19.4,35.81,35.81,0,0,0,13.8,13.5,39.17,39.17,0,0,0,19.4,4.9q6.8,0,14.4-.6,2.8-.21,6.6-.4t8.6-.2l13.2.2q3.6.2,10,.2c.27,0,.4-.4.4-1.2s-.13-1.2-.4-1.2q-8,0-11.7-1a7.44,7.44,0,0,1-5.1-3.9q-1.39-2.9-1.4-8.9v-92.6q0-6,1.3-8.8a7.44,7.44,0,0,1,5-3.9q3.7-1.09,11.5-1.1.6,0,.6-1.2t-.6-1.2l-9.6.2q-8,.4-13.2.4-3.6,0-6.8-.2c-2.13-.13-4-.27-5.6-.4q-6.2-.6-11-.6-16.61,0-24.5,7.5t-7.9,19.1a25.62,25.62,0,0,0,6.2,17.1,40.18,40.18,0,0,0,16.6,11.3Q556.17,268.89,546.57,278.28Zm47.6-62a6.27,6.27,0,0,1,3.9,3.8q1.3,3,1.3,10v38l-9.4.2q-15.79,0-23-7.5t-7.2-19.9q0-11.2,6.3-18.3t19.9-7.1A30.52,30.52,0,0,1,594.17,216.28Zm-38.3,112.1q-7.3-7.69-7.3-21.9,0-15.19,9.3-24.7t25.1-9.7q7.39-.19,16.4.4v49.8q0,5.4-1.7,8.3t-6.3,4.2q-4.61,1.31-13.4,1.3Q563.17,336.08,555.87,328.38Z" transform="translate(-422.73 -212.88)"/><path d="M746,337.28q0,1.2-.6,1.2H723q-7,0-8.4-.8t-7.3-9.2q-5.91-8.4-14.3-19l-31.8-39.4-7,6.8v45.4q0,6.2,1.3,9a7.11,7.11,0,0,0,4.9,3.8q3.6,1,11.6,1c.26,0,.4.4.4,1.2s-.14,1.2-.4,1.2q-6,0-9.6-.2l-13.6-.2-13.2.2c-2.4.13-5.74.2-10,.2-.27,0-.4-.4-.4-1.2s.13-1.2.4-1.2a47.85,47.85,0,0,0,11.5-1,7.48,7.48,0,0,0,5.1-3.9q1.4-2.9,1.4-8.9v-92.6c0-4-.44-6.93-1.3-8.8a7.47,7.47,0,0,0-5-3.9q-3.71-1.09-11.5-1.1c-.27,0-.4-.4-.4-1.2s.13-1.2.4-1.2l9.8.2q8.4.4,13.2.4,5.4,0,13.8-.4l9.4-.2c.26,0,.4.4.4,1.2s-.14,1.2-.4,1.2q-7.8,0-11.5,1.2a7.69,7.69,0,0,0-5,4.1q-1.31,2.9-1.3,8.9v42.2l44-43.8q6.8-6.79,6.8-9.4c0-1.2-.9-2-2.7-2.5a39.42,39.42,0,0,0-8.9-.7c-.27,0-.4-.4-.4-1.2s.13-1.2.4-1.2l8.4.2q7.59.4,14.2.4,6.19,0,13-.4l7-.2q.6,0,.6,1.2t-.6,1.2a50.11,50.11,0,0,0-16.9,3.1,44,44,0,0,0-16.3,10.7l-34,33.2,28.6,36q15.2,19,23.2,26.8t12.2,9.1q4.2,1.31,12.6,1.3Q746,336.08,746,337.28Z" transform="translate(-422.73 -212.88)"/></svg>